<svg xmlns="http://www.w3.org/2000/svg" xmlns:xlink="http://www.w3.org/1999/xlink" version="1.1" id="Layer_1" x="0px" y="0px" viewBox="0 0 309.267 309.267" style="enable-background:new 0 0 309.267 309.267;" xml:space="preserve">

<symbol id="webpage" viewBox="0 0 384 512"><path fill="currentColor" d="M384 121.941V128H256V0h6.059c6.365 0 12.47 2.529 16.971 7.029l97.941 97.941A24.005 24.005 0 0 1 384 121.941zM248 160c-13.2 0-24-10.8-24-24V0H24C10.745 0 0 10.745 0 24v464c0 13.255 10.745 24 24 24h336c13.255 0 24-10.745 24-24V160H248zM123.206 400.505a5.4 5.4 0 0 1-7.633.246l-64.866-60.812a5.4 5.4 0 0 1 0-7.879l64.866-60.812a5.4 5.4 0 0 1 7.633.246l19.579 20.885a5.4 5.4 0 0 1-.372 7.747L101.65 336l40.763 35.874a5.4 5.4 0 0 1 .372 7.747l-19.579 20.884zm51.295 50.479l-27.453-7.97a5.402 5.402 0 0 1-3.681-6.692l61.44-211.626a5.402 5.402 0 0 1 6.692-3.681l27.452 7.97a5.4 5.4 0 0 1 3.68 6.692l-61.44 211.626a5.397 5.397 0 0 1-6.69 3.681zm160.792-111.045l-64.866 60.812a5.4 5.4 0 0 1-7.633-.246l-19.58-20.885a5.4 5.4 0 0 1 .372-7.747L284.35 336l-40.763-35.874a5.4 5.4 0 0 1-.372-7.747l19.58-20.885a5.4 5.4 0 0 1 7.633-.246l64.866 60.812a5.4 5.4 0 0 1-.001 7.879z"></path></symbol>

<!-- folder -->
<symbol id="folder" viewBox="0 0 512 512">
  <path fill="currentColor" d="M464 128H272l-54.63-54.63c-6-6-14.14-9.37-22.63-9.37H48C21.49 64 0 85.49 0 112v288c0 26.51 21.49 48 48 48h416c26.51 0 48-21.49 48-48V176c0-26.51-21.49-48-48-48zm0 272H48V112h140.12l54.63 54.63c6 6 14.14 9.37 22.63 9.37H464v224z"></path>
</symbol>

<!-- bin.svg -->
<symbol id="bin" viewBox="0 0 512 512">
 <path d="M436,60h-75V45c0-24.813-20.187-45-45-45H196c-24.813,0-45,20.187-45,45v15H76c-24.813,0-45,20.187-45,45
   c0,19.928,13.025,36.861,31.005,42.761L88.76,470.736C90.687,493.875,110.385,512,133.604,512h244.792
   c23.22,0,42.918-18.125,44.846-41.271l26.753-322.969C467.975,141.861,481,124.928,481,105C481,80.187,460.813,60,436,60z M181,45
   c0-8.271,6.729-15,15-15h120c8.271,0,15,6.729,15,15v15H181V45z M393.344,468.246c-0.643,7.712-7.208,13.754-14.948,13.754
   H133.604c-7.739,0-14.305-6.042-14.946-13.747L92.294,150h327.412L393.344,468.246z M436,120H76c-8.271,0-15-6.729-15-15
   s6.729-15,15-15h360c8.271,0,15,6.729,15,15S444.271,120,436,120z"/>
 <path d="M195.971,436.071l-15-242c-0.513-8.269-7.67-14.558-15.899-14.043c-8.269,0.513-14.556,7.631-14.044,15.899l15,242.001
   c0.493,7.953,7.097,14.072,14.957,14.072C189.672,452,196.504,444.684,195.971,436.071z"/>
 <path d="M256,180c-8.284,0-15,6.716-15,15v242c0,8.284,6.716,15,15,15s15-6.716,15-15V195C271,186.716,264.284,180,256,180z"/>
 <path d="M346.927,180.029c-8.25-0.513-15.387,5.774-15.899,14.043l-15,242c-0.511,8.268,5.776,15.386,14.044,15.899
   c8.273,0.512,15.387-5.778,15.899-14.043l15-242C361.483,187.659,355.196,180.541,346.927,180.029z"/>
</symbol>

<!-- clock.svg -->
<symbol id="clock" viewBox="0 0 512 512">
  <path d="M272.392,249.22l-0.009-132.207c0-9.052-7.339-16.383-16.383-16.383s-16.383,7.331-16.383,16.383L239.626,256
    c0,4.349,1.731,8.511,4.801,11.59l85.765,85.765c3.204,3.195,7.393,4.792,11.59,4.792c4.189,0,8.378-1.589,11.573-4.792
    c6.399-6.399,6.399-16.764,0-23.172L272.392,249.22z"/>
  <path d="M512.009,256.009c0-0.079-0.011-0.155-0.012-0.234C511.87,114.712,397.083,0.009,256,0.009
    c-141.161,0-256,114.839-256,256S114.839,512,256,512c141.083,0,255.87-114.695,255.997-255.757
    C511.998,256.164,512.009,256.088,512.009,256.009z M272.383,478.64v-25.471c0-9.052-7.339-16.383-16.383-16.383
    s-16.383,7.331-16.383,16.383v25.471c-110.061-8.023-198.227-96.196-206.248-206.257h25.471c9.052,0,16.383-7.322,16.383-16.374
    c0-9.052-7.331-16.383-16.383-16.383H33.368c8.018-110.065,96.185-198.235,206.249-206.257v25.471
    c0,9.043,7.339,16.383,16.383,16.383c9.052,0,16.383-7.339,16.383-16.383V33.369c110.068,8.022,198.227,96.195,206.249,206.257
    h-25.462c-9.052,0-16.392,7.322-16.392,16.374c0,9.052,7.339,16.383,16.392,16.383h25.462
    C470.615,382.448,382.454,470.619,272.383,478.64z"/>
</symbol>

<!-- cloud-2.svg -->
<symbol id="cloud-2" viewBox="0 0 479 479">
  <linearGradient id="a" gradientUnits="userSpaceOnUse" x1="239.604558" x2="239.604558" y1="304.31424" y2=".31424"><stop offset="0" stop-color="#12c2e9"/><stop offset=".5" stop-color="#c471ed"/><stop offset=".982" stop-color="#f64f59"/></linearGradient>
  <path d="m383.605469 112.3125c-3.832031.003906-7.660157.234375-11.464844.691406-10.328125-33.632812-41.355469-56.617187-76.535156-56.691406-8.757813-.007812-17.453125 1.445312-25.730469 4.296875-20.488281-44.300781-69.042969-68.378906-116.707031-57.871094-47.667969 10.507813-81.597657 52.765625-81.5625 101.574219.003906 8.433594 1.054687 16.835938 3.117187 25.007812-45.414062 6.933594-77.859375 47.636719-74.484375 93.453126 3.371094 45.820312 41.425781 81.335937 87.367188 81.539062h296c53.019531 0 96-42.980469 96-96s-42.980469-96-96-96zm0 176h-296c-39.441407.171875-71.667969-31.441406-72.257813-70.878906-.585937-39.4375 30.683594-71.996094 70.113282-73 2.558593-.070313 4.929687-1.363282 6.375-3.476563 1.449218-2.113281 1.796874-4.789062.9375-7.203125-15.878907-45.441406 7.742187-95.203125 52.988281-111.632812 45.246093-16.429688 95.292969 6.589844 112.265625 51.632812.777344 2.089844 2.386718 3.757813 4.445312 4.609375 2.0625.851563 4.378906.804688 6.402344-.128906 8.375-3.894531 17.496094-5.914063 26.730469-5.921875 30.4375.054688 56.648437 21.496094 62.726562 51.320312.871094 4.335938 5.09375 7.140626 9.425781 6.265626 5.214844-1.046876 10.523438-1.578126 15.847657-1.585938 44.183593 0 80 35.820312 80 80 0 44.183594-35.816407 80-80 80zm0 0" fill="url(#a)"/>
</symbol>

<!-- cloud.svg -->
<symbol id="cloud" viewBox="-20 -129 638 638">
  <path d="m478.90625 132.8125c-4.785156.003906-9.5625.292969-14.3125.863281-12.894531-41.988281-51.628906-70.683593-95.550781-70.773437-10.933594-.011719-21.789063 1.804687-32.121094 5.363281-25.578125-55.308594-86.195313-85.367187-145.699219-72.25-59.511718 13.121094-101.867187 65.875-101.824218 126.808594.003906 10.53125 1.316406 21.019531 3.890624 31.222656-56.695312 8.65625-97.203124 59.46875-92.988281 116.667969 4.207031 57.203125 51.71875 101.542968 109.070313 101.796875h369.535156c66.191406 0 119.847656-53.660157 119.847656-119.851563s-53.65625-119.847656-119.847656-119.847656zm0 219.722656h-369.535156c-49.238282.214844-89.472656-39.253906-90.207032-88.488281-.730468-49.234375 38.304688-89.878906 87.53125-91.132813 3.195313-.089843 6.152344-1.703124 7.957032-4.339843 1.8125-2.640625 2.246094-5.980469 1.171875-8.992188-19.824219-56.730469 9.664062-118.855469 66.152343-139.367187 56.484376-20.511719 118.964844 8.226562 140.15625 64.460937.96875 2.609375 2.976563 4.691407 5.546876 5.753907 2.574218 1.0625 5.46875 1.003906 7.992187-.160157 10.457031-4.863281 21.84375-7.382812 33.371094-7.394531 38 .070312 70.722656 26.835938 78.3125 64.070312 1.085937 5.414063 6.359375 8.914063 11.765625 7.820313 6.511718-1.304687 13.136718-1.96875 19.785156-1.976563 55.160156 0 99.875 44.71875 99.875 99.871094 0 55.160156-44.714844 99.875-99.875 99.875zm0 0"/>
</symbol>

<!-- csv.svg -->
<symbol id="csv" viewBox="0 0 481 481">
  <path style="fill:#26A69A;" d="M60.235,28.913C60.235,12.943,73.178,0,89.148,0h212.028l120.471,101.195v351.774
	c0,15.97-12.943,28.913-28.913,28.913H89.148c-15.97,0-28.913-12.943-28.913-28.913V28.913z"/>
  <path style="fill:#00897B;" d="M301.176,0v72.282c0,15.97,12.943,28.92,28.913,28.92h91.558"/>
	<path style="fill:#FFFFFF;" d="M180.721,259.147c-5.722-4.668-11.746-7.537-19.727-7.537c-14.306,0-24.553,10.699-24.553,36.156
		c0,24.998,9.645,35.689,23.959,35.689c10.232,0,16.715-4.224,22.588-8.734l11.294,14.456c-7.68,7.379-18.982,13.56-35.546,13.56
		c-28.762,0-48.354-19.132-48.354-54.972c0-34.952,20.939-54.679,48.806-54.679c15.059,0,24.998,4.518,33.732,11.595
		L180.721,259.147z"/>
	<path style="fill:#FFFFFF;" d="M239.149,342.739c-18.982,0-33.129-6.618-41.72-15.059l12.649-13.997
		c7.688,6.776,17.024,10.541,28.168,10.541c10.24,0,17.167-4.676,17.167-12.664c0-7.529-4.367-10.835-18.824-15.368
		c-23.951-7.529-33.137-17.016-33.137-32.678c0-19.29,17.769-30.426,39.462-30.426c15.819,0,28.16,4.969,37.203,13.553
		l-11.753,13.568c-7.078-5.88-15.368-8.749-23.499-8.749c-9.336,0-15.526,3.471-15.526,10.104c0,6.626,4.676,9.193,20.638,14.306
		c19.885,6.468,31.48,14.6,31.48,33.732C281.472,329.178,265.517,342.739,239.149,342.739z"/>
	<path style="fill:#FFFFFF;" d="M331.309,319.39h0.753l19.132-83.599h25.6l-29.967,104.388h-31.029l-29.832-104.388h26.511
		L331.309,319.39z"/>
</symbol>

<!-- doc.svg -->
<symbol id="doc" viewBox="0 0 482 482">
  <path style="fill:#42A5F5;" d="M60.235,28.913C60.235,12.943,73.178,0,89.148,0h212.028l120.471,101.195v351.774
	c0,15.97-12.943,28.913-28.913,28.913H89.148c-15.97,0-28.913-12.943-28.913-28.913V28.913z"/>
  <path style="fill:#1E88E5;" d="M301.176,0v72.282c0,15.97,12.943,28.913,28.913,28.913h91.558"/>
  <path style="fill:#FFFFFF;" d="M141.41,340.179h-28.318v-104.38h26.511c26.812,0,52.42,8.584,52.42,51.674
  	C192.023,329.924,167.469,340.179,141.41,340.179z M143.217,253.869h-5.12v68.239h5.12c13.704,0,22.889-7.379,22.889-34.65
  	C166.114,259.607,156.326,253.869,143.217,253.869z"/>
  <path style="fill:#FFFFFF;" d="M240.956,342.739c-27.415,0-41.879-20.924-41.879-54.814c0-33.137,14.464-54.829,41.879-54.829
  	s41.871,20.939,41.871,54.829C282.827,321.047,268.371,342.739,240.956,342.739z M240.956,251.309
  	c-11.603,0-16.264,11-16.264,36.608c0,25.592,4.819,36.593,16.264,36.593c11.896,0,16.264-11.294,16.264-36.593
  	C257.22,262.31,252.544,251.309,240.956,251.309z"/>
  <path style="fill:#FFFFFF;" d="M361.427,259.147c-5.722-4.668-11.753-7.537-19.727-7.537c-14.298,0-24.553,10.699-24.553,36.156
  	c0,25.005,9.645,35.689,23.959,35.689c10.232,0,16.723-4.224,22.588-8.734l11.294,14.456c-7.68,7.379-18.982,13.56-35.546,13.56
  	c-28.762,0-48.354-19.132-48.354-54.98c0-34.952,20.939-54.679,48.806-54.679c15.059,0,24.99,4.525,33.724,11.603L361.427,259.147z
  	"/>
</symbol>

<!-- files.svg -->
<symbol id="files" viewBox="0 0 512 512">
  <path d="m487.397 412.233c-10.677-13.483-24.499-24.492-40.281-32.509l15.956-15.958c3.938-3.938 3.938-10.324-.001-14.262-3.938-3.938-10.324-3.937-14.262.001l-21.924 21.927c-9.423-3.004-19.293-5.043-29.416-6.027-.436-.067-3.153-.273-4.08-.337l-.109-228.949c-.001-2.954-1.297-5.759-3.547-7.674l-40.689-34.642v-61.418c.001-17.857-14.528-32.385-32.386-32.385h-266.778c-17.858 0-32.386 14.528-32.386 32.385v357.177c0 17.857 14.528 32.385 32.386 32.385h13.437v13.434c0 17.857 14.528 32.385 32.386 32.385h205.62c5.649 4.217 11.675 7.968 18.031 11.209l-15.807 15.809c-3.938 3.938-3.938 10.324.001 14.262 1.969 1.969 4.549 2.953 7.13 2.953s5.162-.985 7.131-2.954l21.794-21.796c13.666 4.314 28.341 6.587 43.58 6.586h.238c42.189 0 80.084-17.317 103.965-47.505 3.315-4.172 7.12-9.879 7.12-17.041 0-7.185-3.804-12.896-7.109-17.056zm-154.844-305.981 23.242 19.788h-39.449c-9.534 0-17.29-7.743-17.29-17.261v-31.045l33.477 28.502c.007.005.013.011.02.016zm-249.067 329.13v-163.726c0-5.569-4.515-10.084-10.084-10.084s-10.084 4.515-10.084 10.084v130.123h-13.438c-6.737 0-12.217-5.481-12.217-12.217v-357.177c0-6.736 5.481-12.217 12.217-12.217h266.778c6.737 0 12.218 5.481 12.218 12.217v44.247l-33.366-28.407c-1.825-1.553-4.142-2.405-6.538-2.405h-193.269c-17.858 0-32.386 14.528-32.386 32.385v103.654c0 5.569 4.515 10.084 10.084 10.084s10.084-4.515 10.084-10.084v-103.654c0-6.736 5.481-12.217 12.217-12.217h183.184v42.791c0 20.638 16.804 37.43 37.459 37.43h56.77l.104 218.862c-.919.064-3.642.269-4.09.339-36.122 3.52-69.029 20.456-89.951 46.844-3.29 4.175-7.066 9.885-7.066 17.037 0 7.126 3.776 12.833 7.082 17.029.342.431.695.853 1.042 1.279h-184.533c-6.736-.001-12.217-5.481-12.217-12.217zm241.372 23.501c-11.639-6.489-21.823-14.951-29.835-25.067-2.662-3.38-2.738-4.517-2.739-4.526.001-.012.069-1.166 2.721-4.532 8.026-10.123 18.215-18.59 29.856-25.081-4.505 8.933-7.007 19.009-7.007 29.612-.001 10.597 2.501 20.667 7.004 29.594zm13.164-29.593c0-20.906 14.035-38.854 34.219-43.918 3.626-.318 7.288-.489 10.979-.489h.09.005.101c3.684 0 7.34.17 10.958.487 4.716 1.183 9.09 3.078 13.034 5.543l-62.478 62.485c-4.403-7.016-6.908-15.296-6.908-24.108zm56.358 43.889c-3.626.317-7.288.488-10.98.488-.032 0-.065 0-.098 0-.034 0-.063 0-.098 0-3.685 0-7.34-.17-10.959-.487-4.717-1.183-9.092-3.077-13.037-5.539l62.465-62.472c4.396 7.019 6.896 15.304 6.896 24.12.002 20.894-14.021 38.829-34.189 43.89zm77.201-39.378c-8.014 10.13-18.201 18.602-29.848 25.094 4.504-8.93 7.007-19.004 7.007-29.605 0-10.609-2.503-20.689-7.009-29.625 11.646 6.495 21.839 14.969 29.864 25.102 2.622 3.301 2.738 4.472 2.742 4.523-.004.047-.127 1.202-2.756 4.511z"/><path d="m326.661 169.847h-196.752c-5.569 0-10.084 4.515-10.084 10.084s4.515 10.084 10.084 10.084h196.753c5.569 0 10.084-4.515 10.084-10.084s-4.515-10.084-10.085-10.084z"/><path d="m326.661 221.079h-64.101c-5.569 0-10.084 4.515-10.084 10.084s4.515 10.084 10.084 10.084h64.101c5.569 0 10.084-4.515 10.084-10.084s-4.514-10.084-10.084-10.084z"/><path d="m129.909 241.248h67.842c5.569 0 10.084-4.515 10.084-10.084s-4.515-10.084-10.084-10.084h-67.842c-5.569 0-10.084 4.515-10.084 10.084s4.514 10.084 10.084 10.084z"/><path d="m326.661 272.339h-196.752c-5.569 0-10.084 4.515-10.084 10.084s4.515 10.084 10.084 10.084h196.753c5.569 0 10.084-4.515 10.084-10.084s-4.515-10.084-10.085-10.084z"/><path d="m129.909 343.739h18.533c5.569 0 10.084-4.515 10.084-10.084s-4.515-10.084-10.084-10.084h-18.533c-5.569 0-10.084 4.515-10.084 10.084-.001 5.569 4.514 10.084 10.084 10.084z"/><path d="m310.844 333.655c0-5.569-4.515-10.084-10.084-10.084h-106.013c-5.569 0-10.084 4.515-10.084 10.084s4.515 10.084 10.084 10.084h106.013c5.569 0 10.084-4.515 10.084-10.084z"/><path d="m129.909 394.972h113.269c5.569 0 10.084-4.515 10.084-10.084s-4.515-10.084-10.084-10.084h-113.269c-5.569 0-10.084 4.515-10.084 10.084s4.514 10.084 10.084 10.084z"/><path d="m129.909 138.784h113.439c5.569 0 10.084-4.515 10.084-10.084s-4.515-10.084-10.084-10.084h-113.439c-5.569 0-10.084 4.515-10.084 10.084-.001 5.569 4.514 10.084 10.084 10.084z"/><path d="m73.402 216.658c-5.569 0-10.084 4.515-10.084 10.084v.057c0 5.569 4.515 10.056 10.084 10.056s10.084-4.543 10.084-10.113c0-5.569-4.515-10.084-10.084-10.084z"/>
</symbol>

<!-- folder-2.svg -->
<symbol id="folder-2" viewBox="0 0 60 60">
  <path d="M26.525,10.5l-4.712-6.582l-0.001-0.001L21.515,3.5H0v53h60v-46H26.525z M58,12.5v5H31.537l-3.579-5H58z M2,54.5v-49
		h18.485l5,7h0.012l4.69,6.551c0.195,0.272,0.502,0.417,0.813,0.418V19.5h27v35H2z"/>
	<polygon points="21.293,32.793 22.707,34.207 29,27.914 29,45.5 31,45.5 31,27.914 37.293,34.207 38.707,32.793 30,24.086 	"/>
</symbol>

<!-- group.svg -->
<symbol id="group" viewBox="0 0 505 505">
  <path d="M437.1,233.45c14.8-10.4,24.6-27.7,24.6-47.2c0-31.9-25.8-57.7-57.7-57.7c-31.9,0-57.7,25.8-57.7,57.7
			c0,19.5,9.7,36.8,24.6,47.2c-12.7,4.4-24.3,11.2-34.1,20c-13.5-11.5-29.4-20.3-46.8-25.5c21.1-12.8,35.3-36.1,35.3-62.6
			c0-40.4-32.7-73.1-73.1-73.1c-40.4,0-73.1,32.8-73.1,73.1c0,26.5,14.1,49.8,35.3,62.6c-17.2,5.2-32.9,13.9-46.3,25.2
			c-9.8-8.6-21.2-15.3-33.7-19.6c14.8-10.4,24.6-27.7,24.6-47.2c0-31.9-25.8-57.7-57.7-57.7s-57.7,25.8-57.7,57.7
			c0,19.5,9.7,36.8,24.6,47.2C28.5,247.25,0,284.95,0,329.25v6.6c0,0.2,0.2,0.4,0.4,0.4h122.3c-0.7,5.5-1.1,11.2-1.1,16.9v6.8
			c0,29.4,23.8,53.2,53.2,53.2h155c29.4,0,53.2-23.8,53.2-53.2v-6.8c0-5.7-0.4-11.4-1.1-16.9H505c0.2,0,0.4-0.2,0.4-0.4v-6.6
			C505.2,284.85,476.8,247.15,437.1,233.45z M362.3,186.15c0-23,18.7-41.7,41.7-41.7s41.7,18.7,41.7,41.7
			c0,22.7-18.3,41.2-40.9,41.7c-0.3,0-0.5,0-0.8,0s-0.5,0-0.8,0C380.5,227.45,362.3,208.95,362.3,186.15z M194.9,165.35
			c0-31.5,25.6-57.1,57.1-57.1s57.1,25.6,57.1,57.1c0,30.4-23.9,55.3-53.8,57c-1.1,0-2.2,0-3.3,0c-1.1,0-2.2,0-3.3,0
			C218.8,220.65,194.9,195.75,194.9,165.35z M59.3,186.15c0-23,18.7-41.7,41.7-41.7s41.7,18.7,41.7,41.7c0,22.7-18.3,41.2-40.9,41.7
			c-0.3,0-0.5,0-0.8,0s-0.5,0-0.8,0C77.6,227.45,59.3,208.95,59.3,186.15z M125.5,320.15H16.2c4.5-42.6,40.5-76,84.2-76.3
			c0.2,0,0.4,0,0.6,0s0.4,0,0.6,0c20.8,0.1,39.8,7.8,54.5,20.3C141.7,279.75,131,298.95,125.5,320.15z M366.8,359.95
			c0,20.5-16.7,37.2-37.2,37.2h-155c-20.5,0-37.2-16.7-37.2-37.2v-6.8c0-62.1,49.6-112.9,111.3-114.7c1.1,0.1,2.3,0.1,3.4,0.1
			s2.3,0,3.4-0.1c61.7,1.8,111.3,52.6,111.3,114.7V359.95z M378.7,320.15c-5.5-21.1-16-40-30.3-55.6c14.8-12.8,34-20.5,55-20.7
			c0.2,0,0.4,0,0.6,0s0.4,0,0.6,0c43.7,0.3,79.7,33.7,84.2,76.3H378.7z"/>
</symbol>

<!-- more.svg -->
<symbol id="more" viewBox="0 0 60 60">
  <path d="M8,22c-4.411,0-8,3.589-8,8s3.589,8,8,8s8-3.589,8-8S12.411,22,8,22z M8,36c-3.309,0-6-2.691-6-6s2.691-6,6-6s6,2.691,6,6
		S11.309,36,8,36z"/>
	<path d="M52,22c-4.411,0-8,3.589-8,8s3.589,8,8,8s8-3.589,8-8S56.411,22,52,22z M52,36c-3.309,0-6-2.691-6-6s2.691-6,6-6
		s6,2.691,6,6S55.309,36,52,36z"/>
	<path d="M30,22c-4.411,0-8,3.589-8,8s3.589,8,8,8s8-3.589,8-8S34.411,22,30,22z M30,36c-3.309,0-6-2.691-6-6s2.691-6,6-6
		s6,2.691,6,6S33.309,36,30,36z"/>
</symbol>

<!-- pdf.svg -->
<symbol id="pdf" viewBox="0 0 350 350">
  <path style="fill:#E2574C;" d="M38.658,0h164.23l87.049,86.711v203.227c0,10.679-8.659,19.329-19.329,19.329H38.658   c-10.67,0-19.329-8.65-19.329-19.329V19.329C19.329,8.65,27.989,0,38.658,0z"/>
  <path style="fill:#B53629;" d="M289.658,86.981h-67.372c-10.67,0-19.329-8.659-19.329-19.329V0.193L289.658,86.981z"/>
  <path style="fill:#FFFFFF;" d="M217.434,146.544c3.238,0,4.823-2.822,4.823-5.557c0-2.832-1.653-5.567-4.823-5.567h-18.44   c-3.605,0-5.615,2.986-5.615,6.282v45.317c0,4.04,2.3,6.282,5.412,6.282c3.093,0,5.403-2.242,5.403-6.282v-12.438h11.153   c3.46,0,5.19-2.832,5.19-5.644c0-2.754-1.73-5.49-5.19-5.49h-11.153v-16.903C204.194,146.544,217.434,146.544,217.434,146.544z    M155.107,135.42h-13.492c-3.663,0-6.263,2.513-6.263,6.243v45.395c0,4.629,3.74,6.079,6.417,6.079h14.159   c16.758,0,27.824-11.027,27.824-28.047C183.743,147.095,173.325,135.42,155.107,135.42z M155.755,181.946h-8.225v-35.334h7.413   c11.221,0,16.101,7.529,16.101,17.918C171.044,174.253,166.25,181.946,155.755,181.946z M106.33,135.42H92.964   c-3.779,0-5.886,2.493-5.886,6.282v45.317c0,4.04,2.416,6.282,5.663,6.282s5.663-2.242,5.663-6.282v-13.231h8.379   c10.341,0,18.875-7.326,18.875-19.107C125.659,143.152,117.425,135.42,106.33,135.42z M106.108,163.158h-7.703v-17.097h7.703   c4.755,0,7.78,3.711,7.78,8.553C113.878,159.447,110.863,163.158,106.108,163.158z"/>
</symbol>

<!-- pdf 2 -->
<symbol id="pdf2" viewBox="75 0 300 485">
  <path style="fill:#D22600;" d="M60.235,28.913C60.235,12.943,73.178,0,89.148,0h212.028l120.471,101.195v351.774
  	c0,15.97-12.943,28.913-28.913,28.913H89.148c-15.97,0-28.913-12.943-28.913-28.913V28.913z"/>
  <path style="fill:#AC2200;" d="M301.176,0v72.282c0,15.97,12.943,28.913,28.913,28.913h91.558"/>
	<path style="fill:#FFFFFF;" d="M150.904,305.536H139.61v34.643h-25.005v-104.38h32.986c28.469,0,44.732,11.144,44.732,34.04
		C192.316,294.4,175.601,305.536,150.904,305.536z M147.893,253.568h-8.282v33.89h9.186c11.294,0,17.769-5.429,17.769-17.626
		C166.566,258.846,160.392,253.568,147.893,253.568z"/>
	<path style="fill:#FFFFFF;" d="M231.77,340.179h-28.318v-104.38h26.511c26.82,0,52.412,8.584,52.412,51.674
		C282.376,329.924,257.822,340.179,231.77,340.179z M233.57,253.869h-5.12v68.239h5.12c13.704,0,22.889-7.379,22.889-34.65
		C256.474,259.607,246.679,253.869,233.57,253.869z"/>
	<path style="fill:#FFFFFF;" d="M325.888,253.568v27.422h36.45v17.92h-36.45v41.269h-25.156v-104.38h68.834l-2.56,17.769
		L325.888,253.568L325.888,253.568z"/>
</symbol>

<!-- ppt.svg -->
<symbol id="ppt" viewBox="0 0 482 482">
  <path style="fill:#FF8000;" d="M60.235,28.913C60.235,12.943,73.178,0,89.148,0h212.028l120.471,101.195v351.774
	c0,15.97-12.943,28.913-28.913,28.913H89.148c-15.97,0-28.913-12.943-28.913-28.913V28.913z"/>
  <path style="fill:#FC6100;" d="M301.176,0v72.282c0,15.97,12.943,28.913,28.913,28.913h91.558"/>
	<path style="fill:#FFFFFF;" d="M150.904,305.536H139.61v34.643h-25.005v-104.38h32.986c28.469,0,44.732,11.144,44.732,34.04
		C192.316,294.4,175.601,305.536,150.904,305.536z M147.893,253.568h-8.282v33.89h9.186c11.294,0,17.769-5.429,17.769-17.626
		C166.566,258.846,160.392,253.568,147.893,253.568z"/>
	<path style="fill:#FFFFFF;" d="M241.257,305.536h-11.294v34.643h-25.005v-104.38h32.986c28.469,0,44.732,11.144,44.732,34.04
		C282.669,294.4,265.954,305.536,241.257,305.536z M238.246,253.568h-8.282v33.89h9.186c11.294,0,17.769-5.429,17.769-17.626
		C256.919,258.846,250.744,253.568,238.246,253.568z"/>
	<path style="fill:#FFFFFF;" d="M343.665,254.923v85.256h-25.02v-85.256h-29.222v-19.132h84.661l-2.575,19.132H343.665z"/>
</symbol>

<!-- return.svg -->
<symbol id="return" viewBox="0 0 512 512">
  <path d="M288.502,32.502c-108.328,0-198.827,77.485-219.166,179.899l-42.482-53.107L0,180.784l68.769,85.961
    c3.352,4.178,8.338,6.447,13.427,6.447c2.596,0,5.226-0.585,7.685-1.805l103.153-51.577l-15.387-30.757l-75.8,37.892
    c14.063-90.5,92.27-160.059,186.655-160.059c104.271,0,189.114,84.843,189.114,189.114s-84.843,189.114-189.114,189.114v34.384
    C411.735,479.498,512,379.233,512,256S411.735,32.502,288.502,32.502z"/>
</symbol>

<!-- server.svg -->
<symbol id="server" viewBox="0 0 60 60">
  <path d="M10.5,6.5C8.019,6.5,6,8.519,6,11s2.019,4.5,4.5,4.5S15,13.481,15,11S12.981,6.5,10.5,6.5z M10.5,13.5
  C9.122,13.5,8,12.379,8,11s1.122-2.5,2.5-2.5S13,9.621,13,11S11.878,13.5,10.5,13.5z"/>
  <circle cx="50" cy="9.5" r="1"/>
  <circle cx="46" cy="9.5" r="1"/>
  <circle cx="52" cy="12.5" r="1"/>
  <circle cx="48" cy="12.5" r="1"/>
  <circle cx="42" cy="9.5" r="1"/>
  <circle cx="44" cy="12.5" r="1"/>
  <circle cx="38" cy="9.5" r="1"/>
  <circle cx="40" cy="12.5" r="1"/>
  <circle cx="34" cy="9.5" r="1"/>
  <circle cx="36" cy="12.5" r="1"/>
  <path d="M60,16.892V5.108C60,2.567,57.933,0.5,55.392,0.5H4.608C2.067,0.5,0,2.567,0,5.108v11.783c0,1.469,0.703,2.764,1.777,3.608
    C0.703,21.344,0,22.64,0,24.108v11.783c0,1.469,0.703,2.764,1.777,3.608C0.703,40.344,0,41.64,0,43.108v11.783
    C0,57.433,2.067,59.5,4.608,59.5h50.783c2.541,0,4.608-2.067,4.608-4.608V43.108c0-1.469-0.703-2.764-1.777-3.608
    C59.297,38.656,60,37.36,60,35.892V24.108c0-1.469-0.703-2.764-1.777-3.608C59.297,19.656,60,18.36,60,16.892z M58,43.108v11.783
    c0,1.438-1.17,2.608-2.608,2.608H4.608C3.17,57.5,2,56.33,2,54.892V43.108C2,41.67,3.17,40.5,4.608,40.5h50.783
    C56.83,40.5,58,41.67,58,43.108z M58,24.108v11.783c0,1.438-1.17,2.608-2.608,2.608H4.608C3.17,38.5,2,37.33,2,35.892V24.108
    C2,22.67,3.17,21.5,4.608,21.5h50.783C56.83,21.5,58,22.67,58,24.108z M4.608,19.5C3.17,19.5,2,18.33,2,16.892V5.108
    C2,3.67,3.17,2.5,4.608,2.5h50.783C56.83,2.5,58,3.67,58,5.108v11.783c0,1.438-1.17,2.608-2.608,2.608H4.608z"/>
  <path d="M10.5,34.5c2.481,0,4.5-2.019,4.5-4.5s-2.019-4.5-4.5-4.5S6,27.519,6,30S8.019,34.5,10.5,34.5z M10.5,27.5
    c1.378,0,2.5,1.121,2.5,2.5s-1.122,2.5-2.5,2.5S8,31.379,8,30S9.122,27.5,10.5,27.5z"/>
  <circle cx="50" cy="28.5" r="1"/>
  <circle cx="46" cy="28.5" r="1"/>
  <circle cx="52" cy="31.5" r="1"/>
  <circle cx="48" cy="31.5" r="1"/>
  <circle cx="42" cy="28.5" r="1"/>
  <circle cx="44" cy="31.5" r="1"/>
  <circle cx="38" cy="28.5" r="1"/>
  <circle cx="40" cy="31.5" r="1"/>
  <circle cx="34" cy="28.5" r="1"/>
  <circle cx="36" cy="31.5" r="1"/>
  <path d="M10.5,53.5c2.481,0,4.5-2.019,4.5-4.5s-2.019-4.5-4.5-4.5S6,46.519,6,49S8.019,53.5,10.5,53.5z M10.5,46.5
    c1.378,0,2.5,1.121,2.5,2.5s-1.122,2.5-2.5,2.5S8,50.379,8,49S9.122,46.5,10.5,46.5z"/>
  <circle cx="50" cy="47.5" r="1"/>
  <circle cx="46" cy="47.5" r="1"/>
  <circle cx="52" cy="50.5" r="1"/>
  <circle cx="48" cy="50.5" r="1"/>
  <circle cx="42" cy="47.5" r="1"/>
  <circle cx="44" cy="50.5" r="1"/>
  <circle cx="38" cy="47.5" r="1"/>
  <circle cx="40" cy="50.5" r="1"/>
  <circle cx="34" cy="47.5" r="1"/>
  <circle cx="36" cy="50.5" r="1"/>
</symbol>

<!-- settings.svg -->
<symbol id="settings" viewBox="0 0 478 478">
  <path d="M454.2,189.101l-33.6-5.7c-3.5-11.3-8-22.2-13.5-32.6l19.8-27.7c8.4-11.8,7.1-27.9-3.2-38.1l-29.8-29.8
  c-5.6-5.6-13-8.7-20.9-8.7c-6.2,0-12.1,1.9-17.1,5.5l-27.8,19.8c-10.8-5.7-22.1-10.4-33.8-13.9l-5.6-33.2
  c-2.4-14.3-14.7-24.7-29.2-24.7h-42.1c-14.5,0-26.8,10.4-29.2,24.7l-5.8,34c-11.2,3.5-22.1,8.1-32.5,13.7l-27.5-19.8
  c-5-3.6-11-5.5-17.2-5.5c-7.9,0-15.4,3.1-20.9,8.7l-29.9,29.8c-10.2,10.2-11.6,26.3-3.2,38.1l20,28.1
  c-5.5,10.5-9.9,21.4-13.3,32.7l-33.2,5.6c-14.3,2.4-24.7,14.7-24.7,29.2v42.1c0,14.5,10.4,26.8,24.7,29.2l34,5.8
  c3.5,11.2,8.1,22.1,13.7,32.5l-19.7,27.4c-8.4,11.8-7.1,27.9,3.2,38.1l29.8,29.8c5.6,5.6,13,8.7,20.9,8.7c6.2,0,12.1-1.9,17.1-5.5
  l28.1-20c10.1,5.3,20.7,9.6,31.6,13l5.6,33.6c2.4,14.3,14.7,24.7,29.2,24.7h42.2c14.5,0,26.8-10.4,29.2-24.7l5.7-33.6
  c11.3-3.5,22.2-8,32.6-13.5l27.7,19.8c5,3.6,11,5.5,17.2,5.5l0,0c7.9,0,15.3-3.1,20.9-8.7l29.8-29.8c10.2-10.2,11.6-26.3,3.2-38.1
  l-19.8-27.8c5.5-10.5,10.1-21.4,13.5-32.6l33.6-5.6c14.3-2.4,24.7-14.7,24.7-29.2v-42.1
  C478.9,203.801,468.5,191.501,454.2,189.101z M451.9,260.401c0,1.3-0.9,2.4-2.2,2.6l-42,7c-5.3,0.9-9.5,4.8-10.8,9.9
  c-3.8,14.7-9.6,28.8-17.4,41.9c-2.7,4.6-2.5,10.3,0.6,14.7l24.7,34.8c0.7,1,0.6,2.5-0.3,3.4l-29.8,29.8c-0.7,0.7-1.4,0.8-1.9,0.8
  c-0.6,0-1.1-0.2-1.5-0.5l-34.7-24.7c-4.3-3.1-10.1-3.3-14.7-0.6c-13.1,7.8-27.2,13.6-41.9,17.4c-5.2,1.3-9.1,5.6-9.9,10.8l-7.1,42
  c-0.2,1.3-1.3,2.2-2.6,2.2h-42.1c-1.3,0-2.4-0.9-2.6-2.2l-7-42c-0.9-5.3-4.8-9.5-9.9-10.8c-14.3-3.7-28.1-9.4-41-16.8
  c-2.1-1.2-4.5-1.8-6.8-1.8c-2.7,0-5.5,0.8-7.8,2.5l-35,24.9c-0.5,0.3-1,0.5-1.5,0.5c-0.4,0-1.2-0.1-1.9-0.8l-29.8-29.8
  c-0.9-0.9-1-2.3-0.3-3.4l24.6-34.5c3.1-4.4,3.3-10.2,0.6-14.8c-7.8-13-13.8-27.1-17.6-41.8c-1.4-5.1-5.6-9-10.8-9.9l-42.3-7.2
  c-1.3-0.2-2.2-1.3-2.2-2.6v-42.1c0-1.3,0.9-2.4,2.2-2.6l41.7-7c5.3-0.9,9.6-4.8,10.9-10c3.7-14.7,9.4-28.9,17.1-42
  c2.7-4.6,2.4-10.3-0.7-14.6l-24.9-35c-0.7-1-0.6-2.5,0.3-3.4l29.8-29.8c0.7-0.7,1.4-0.8,1.9-0.8c0.6,0,1.1,0.2,1.5,0.5l34.5,24.6
  c4.4,3.1,10.2,3.3,14.8,0.6c13-7.8,27.1-13.8,41.8-17.6c5.1-1.4,9-5.6,9.9-10.8l7.2-42.3c0.2-1.3,1.3-2.2,2.6-2.2h42.1
  c1.3,0,2.4,0.9,2.6,2.2l7,41.7c0.9,5.3,4.8,9.6,10,10.9c15.1,3.8,29.5,9.7,42.9,17.6c4.6,2.7,10.3,2.5,14.7-0.6l34.5-24.8
  c0.5-0.3,1-0.5,1.5-0.5c0.4,0,1.2,0.1,1.9,0.8l29.8,29.8c0.9,0.9,1,2.3,0.3,3.4l-24.7,34.7c-3.1,4.3-3.3,10.1-0.6,14.7
  c7.8,13.1,13.6,27.2,17.4,41.9c1.3,5.2,5.6,9.1,10.8,9.9l42,7.1c1.3,0.2,2.2,1.3,2.2,2.6v42.1H451.9z"/>
<path d="M239.4,136.001c-57,0-103.3,46.3-103.3,103.3s46.3,103.3,103.3,103.3s103.3-46.3,103.3-103.3S296.4,136.001,239.4,136.001
  z M239.4,315.601c-42.1,0-76.3-34.2-76.3-76.3s34.2-76.3,76.3-76.3s76.3,34.2,76.3,76.3S281.5,315.601,239.4,315.601z"/>
</symbol>

<!-- share.svg -->
<symbol id="share" viewBox="0 0 59 59">
  <path d="M39.927,41.929c-0.524,0.524-0.975,1.1-1.365,1.709l-17.28-10.489c0.457-1.144,0.716-2.388,0.716-3.693
	c0-1.305-0.259-2.549-0.715-3.693l17.284-10.409C40.342,18.142,43.454,20,46.998,20c5.514,0,10-4.486,10-10s-4.486-10-10-10
	s-10,4.486-10,10c0,1.256,0.243,2.454,0.667,3.562L20.358,23.985c-1.788-2.724-4.866-4.529-8.361-4.529c-5.514,0-10,4.486-10,10
	s4.486,10,10,10c3.495,0,6.572-1.805,8.36-4.529L37.661,45.43c-0.43,1.126-0.664,2.329-0.664,3.57c0,2.671,1.04,5.183,2.929,7.071
	c1.949,1.949,4.51,2.924,7.071,2.924s5.122-0.975,7.071-2.924c1.889-1.889,2.929-4.4,2.929-7.071s-1.04-5.183-2.929-7.071
	C50.169,38.029,43.826,38.029,39.927,41.929z M46.998,2c4.411,0,8,3.589,8,8s-3.589,8-8,8s-8-3.589-8-8S42.586,2,46.998,2z
	 M11.998,37.456c-4.411,0-8-3.589-8-8s3.589-8,8-8s8,3.589,8,8S16.409,37.456,11.998,37.456z M52.654,54.657
	c-3.119,3.119-8.194,3.119-11.313,0c-1.511-1.511-2.343-3.521-2.343-5.657s0.832-4.146,2.343-5.657
	c1.56-1.56,3.608-2.339,5.657-2.339s4.097,0.779,5.657,2.339c1.511,1.511,2.343,3.521,2.343,5.657S54.166,53.146,52.654,54.657z"/>
</symbol>

<!-- sql.svg -->
<symbol id="sql" viewBox="0 0 482 482">
  <path style="fill:#FBC02D;" d="M60.235,28.913C60.235,12.943,73.178,0,89.148,0h212.028l120.471,101.195v351.774
	c0,15.97-12.943,28.913-28.913,28.913H89.148c-15.97,0-28.913-12.943-28.913-28.913V28.913z"/>
  <path style="fill:#FB8C00;" d="M301.176,0v72.282c0,15.97,12.943,28.92,28.913,28.92h91.558"/>
	<path style="fill:#FFFFFF;" d="M148.796,342.739c-18.982,0-33.129-6.618-41.72-15.059l12.649-13.997
		c7.688,6.776,17.024,10.541,28.168,10.541c10.24,0,17.167-4.676,17.167-12.664c0-7.529-4.367-10.835-18.824-15.368
		c-23.951-7.529-33.137-17.016-33.137-32.678c0-19.29,17.769-30.426,39.462-30.426c15.819,0,28.16,4.969,37.203,13.553
		l-11.753,13.568c-7.078-5.88-15.368-8.749-23.499-8.749c-9.336,0-15.518,3.471-15.518,10.104c0,6.626,4.676,9.193,20.638,14.306
		c19.885,6.468,31.48,14.6,31.48,33.732C191.119,329.178,175.157,342.739,148.796,342.739z"/>
	<path style="fill:#FFFFFF;" d="M261.888,333.545l0.158,0.602c14.456,2.718,23.793,8.591,29.365,25.163l-20.337,6.927
		c-6.618-15.661-13.395-23.951-31.624-23.951c-26.21,0-38.859-20.488-38.859-54.377c0-33.129,13.402-54.822,40.817-54.822
		c27.422,0,40.968,20.924,40.968,54.822C282.376,308.397,276.811,325.414,261.888,333.545z M241.408,251.452
		c-11.595,0-14.901,11.144-14.901,36.457c0,25.457,3.456,36.6,14.901,36.6c11.904,0,14.901-11.294,14.901-36.6
		C256.309,262.453,253.154,251.452,241.408,251.452z"/>
	<path style="fill:#FFFFFF;" d="M299.979,340.179V235.791h25.005v84.668h45.184l-2.568,19.72H299.979z"/>
</symbol>

<!-- star.svg -->
<symbol id="star" viewBox="0 0 56 56">
  <path d="M11.287,54.548c-0.207,0-0.414-0.064-0.588-0.191c-0.308-0.224-0.462-0.603-0.397-0.978l3.091-18.018L0.302,22.602
	c-0.272-0.266-0.37-0.663-0.253-1.024c0.118-0.362,0.431-0.626,0.808-0.681l18.09-2.629l8.091-16.393
	c0.168-0.342,0.516-0.558,0.896-0.558l0,0c0.381,0,0.729,0.216,0.896,0.558l8.09,16.393l18.091,2.629
	c0.377,0.055,0.689,0.318,0.808,0.681c0.117,0.361,0.02,0.759-0.253,1.024L42.475,35.363l3.09,18.017
	c0.064,0.375-0.09,0.754-0.397,0.978c-0.308,0.226-0.717,0.255-1.054,0.076l-16.18-8.506l-16.182,8.506
	C11.606,54.51,11.446,54.548,11.287,54.548z M3.149,22.584l12.016,11.713c0.235,0.229,0.343,0.561,0.287,0.885L12.615,51.72
	l14.854-7.808c0.291-0.154,0.638-0.154,0.931,0l14.852,7.808l-2.836-16.538c-0.056-0.324,0.052-0.655,0.287-0.885l12.016-11.713
	l-16.605-2.413c-0.326-0.047-0.607-0.252-0.753-0.547L27.934,4.578l-7.427,15.047c-0.146,0.295-0.427,0.5-0.753,0.547L3.149,22.584z
	"/>
</symbol>

<!-- transfer.svg -->
<symbol id="transfer" viewBox="0 0 512 512">
  <path d="m108.194 380.12-29.839 30.594-10.529-9.839c-4.07-3.802-10.452-3.587-14.254.483s-3.586 10.452.483 14.254l17.742 16.577c1.943 1.815 4.415 2.716 6.884 2.716 2.626 0 5.247-1.019 7.221-3.043l36.731-37.66c3.889-3.988 3.809-10.372-.178-14.261-3.988-3.887-10.372-3.807-14.261.179z"/><path d="m86.392 157.971h184.221c5.57 0 10.085-4.515 10.085-10.084s-4.515-10.084-10.085-10.084h-184.221c-5.57 0-10.085 4.515-10.085 10.084s4.515 10.084 10.085 10.084z"/><path d="m86.392 208.325h120.792c5.57 0 10.085-4.515 10.085-10.084s-4.515-10.084-10.085-10.084h-120.792c-5.57 0-10.085 4.515-10.085 10.084s4.515 10.084 10.085 10.084z"/><path d="m86.392 258.679h184.221c5.57 0 10.085-4.515 10.085-10.084s-4.515-10.085-10.085-10.085h-184.221c-5.57 0-10.085 4.515-10.085 10.085s4.515 10.084 10.085 10.084z"/><path d="m86.392 107.616h111.553c5.57 0 10.085-4.515 10.085-10.084s-4.515-10.084-10.085-10.084h-111.553c-5.57 0-10.085 4.515-10.085 10.084s4.515 10.084 10.085 10.084z"/><path d="m201.601 289.715h-43.788c-5.57 0-10.085 4.515-10.085 10.084s4.515 10.085 10.085 10.085h43.788c5.57 0 10.085-4.515 10.085-10.085 0-5.569-4.515-10.084-10.085-10.084z"/><path d="m270.613 289.715h-28.37c-5.57 0-10.085 4.515-10.085 10.084s4.515 10.085 10.085 10.085h28.37c5.57 0 10.085-4.515 10.085-10.085 0-5.569-4.515-10.084-10.085-10.084z"/><path d="m218.431 360.663 52.177.028h.005c5.567 0 10.082-4.511 10.085-10.079.003-5.57-4.51-10.087-10.08-10.09l-52.177-.028c-.002 0-.003 0-.005 0-5.567 0-10.082 4.511-10.085 10.079-.003 5.57 4.51 10.087 10.08 10.09z"/><path d="m500.917 337.717h-82.252v-33.298c0-3.749-2.08-7.189-5.4-8.931-3.322-1.743-7.333-1.497-10.417.634l-45.146 31.188v-114.451h37.846v33.299c0 3.749 2.08 7.189 5.4 8.931 1.473.772 3.081 1.154 4.684 1.154 2.012 0 4.016-.601 5.733-1.787l95.285-65.826c2.726-1.882 4.353-4.984 4.353-8.296s-1.626-6.414-4.351-8.297l-95.285-65.855c-3.084-2.132-7.097-2.376-10.418-.635s-5.401 5.181-5.401 8.931v33.299h-37.846v-57.3c0-2.955-1.296-5.762-3.547-7.678l-94.406-80.393c-1.824-1.553-4.142-2.406-6.538-2.406h-193.659c-17.875 0-32.418 14.541-32.418 32.414v43.299c0 5.569 4.516 10.084 10.085 10.084 5.57 0 10.085-4.515 10.085-10.084v-43.299c0-6.752 5.494-12.245 12.248-12.245h183.574v42.877c0 20.685 16.832 37.515 37.52 37.515h56.886v47.215h-24.236c-5.57 0-10.085 4.515-10.085 10.085v44.914c0 5.569 4.515 10.084 10.085 10.084h24.236v128.385l-29.968 20.703c-2.726 1.882-4.353 4.984-4.353 8.296s1.626 6.414 4.351 8.297l29.97 20.714v28.118c0 6.752-5.494 12.245-12.248 12.245h-166.05c11.029-23.002 16.73-46.687 16.515-68.973-.127-15.529-5.92-19.395-16.148-24.892l-66.436-35.842c-2.989-1.611-6.588-1.611-9.577 0l-36.283 19.575v-164.002c0-5.569-4.515-10.084-10.085-10.084-5.569 0-10.085 4.515-10.085 10.084v174.882l-9.78 5.277-.261.141c-9.894 5.335-15.964 9.389-16.09 24.846-.239 24.799 6.848 51.377 20.503 76.877 14.731 27.4 32.427 47.411 52.595 59.475.002.002.005.003.007.005 5.599 3.343 9.931 5.014 14.265 5.014 4.335 0 8.671-1.672 14.276-5.019 17.053-10.2 32.305-26.059 45.477-47.196h177.157c17.875 0 32.418-14.541 32.418-32.414v-14.177l45.144 31.201c1.717 1.187 3.722 1.788 5.735 1.788 1.602 0 3.211-.382 4.683-1.154 3.321-1.741 5.401-5.181 5.401-8.931v-33.298h82.252c5.57 0 10.085-4.515 10.085-10.084v-44.915c0-5.569-4.515-10.084-10.085-10.084zm-220.271-257.325c-9.567 0-17.35-7.782-17.35-17.346v-31.128l56.923 48.474zm-143.17 357.571c-12.755 23.777-28.377 41.658-45.172 51.704-2.327 1.389-3.425 1.905-3.928 2.095-.502-.19-1.599-.705-3.921-2.09-16.999-10.169-32.202-27.569-45.176-51.703-12.052-22.506-18.313-45.725-18.107-67.161.022-2.695.228-3.846.334-4.263.796-.657 3.104-1.902 5.159-3.009l15.31-8.26c.031-.017.063-.034.094-.051l46.306-24.982 61.459 33.157.216.116c2.068 1.111 4.39 2.36 5.196 3.019.106.423.31 1.582.332 4.288.208 21.471-6.051 44.687-18.102 67.14zm185.905-245.273v-24.745h82.252c5.57 0 10.085-4.515 10.085-10.084v-24.155l67.46 46.624-67.46 46.604v-24.16c0-5.569-4.515-10.084-10.085-10.084zm167.451 189.942h-82.252c-5.57 0-10.085 4.515-10.085 10.085v24.154l-67.46-46.624 67.46-46.603v24.159c0 5.569 4.515 10.084 10.085 10.084h82.252z"/><path d="m37.219 130.711c5.57 0 10.085-4.543 10.085-10.113 0-5.569-4.515-10.085-10.085-10.085-5.569 0-10.085 4.515-10.085 10.085v.057c0 5.569 4.516 10.056 10.085 10.056z"/><path d="m252.021 188.156c-5.57 0-10.057 4.515-10.057 10.084s4.543 10.084 10.113 10.084 10.085-4.515 10.085-10.084-4.515-10.084-10.085-10.084z"/>
</symbol>

<!-- txt.svg -->
<symbol id="txt" viewBox="0 0 482 482">
  <path style="fill:#00C250;" d="M60.235,28.913C60.235,12.943,73.178,0,89.148,0h212.028l120.471,101.195v351.774
	c0,15.97-12.943,28.913-28.913,28.913H89.148c-15.97,0-28.913-12.943-28.913-28.913V28.913z"/>
  <path style="fill:#00A344;" d="M301.176,0v72.282c0,15.97,12.943,28.913,28.913,28.913h91.558"/>
	<path style="fill:#FFFFFF;" d="M162.959,254.923v85.256h-25.005v-85.256h-29.229v-19.132h84.653l-2.568,19.132H162.959z"/>
	<path style="fill:#FFFFFF;" d="M198.174,235.799h27.264l14.908,32.542h0.602l15.819-32.542h26.511l-28.032,47.91l30.584,56.471
		h-27.264l-17.92-38.709h-0.602l-17.476,38.709h-26.654l29.523-55.424L198.174,235.799z"/>
	<path style="fill:#FFFFFF;" d="M343.665,254.923v85.256h-24.998v-85.256h-29.237v-19.132h84.661l-2.575,19.132H343.665z"/>
</symbol>

<!-- xls.svg -->
<symbol id="xls" viewBox="0 0 482 482">
  <path style="fill:#26A69A;" d="M60.235,28.913C60.235,12.943,73.178,0,89.148,0h212.028l120.471,101.195v351.774
	c0,15.97-12.943,28.913-28.913,28.913H89.148c-15.97,0-28.913-12.943-28.913-28.913V28.913z"/>
  <path style="fill:#00897B;" d="M301.176,0v72.282c0,15.97,12.943,28.913,28.913,28.913h91.558"/>
	<path style="fill:#FFFFFF;" d="M107.821,235.799h27.264l14.908,32.542h0.602l15.812-32.542h26.511l-28.017,47.91l30.577,56.471
		h-27.264l-17.92-38.709h-0.602l-17.476,38.709h-26.654l29.523-55.424L107.821,235.799z"/>
	<path style="fill:#FFFFFF;" d="M209.626,340.179v-104.38h25.005v84.661h45.184l-2.568,19.72H209.626z"/>
	<path style="fill:#FFFFFF;" d="M329.502,342.739c-18.982,0-33.129-6.618-41.72-15.059l12.649-13.997
		c7.688,6.776,17.032,10.541,28.175,10.541c10.232,0,17.16-4.676,17.16-12.664c0-7.529-4.367-10.835-18.824-15.368
		c-23.951-7.529-33.129-17.016-33.129-32.685c0-19.283,17.762-30.426,39.454-30.426c15.827,0,28.16,4.969,37.203,13.553
		l-11.753,13.56c-7.078-5.865-15.368-8.734-23.499-8.734c-9.336,0-15.526,3.471-15.526,10.089c0,6.626,4.676,9.186,20.638,14.298
		c19.885,6.475,31.48,14.607,31.48,33.739C371.825,329.178,355.87,342.739,329.502,342.739z"/>
</symbol>

<symbol id="expand-tri" viewBox="0 -15 60 60">
  <polygon points="0,0 50,0 25,25"/>
</symbol>

<!-- zoom-out.svg -->
<symbol id="zoom-out" viewBox="0 0 451.37688 451">
  <path d="m280.710938 341.523438c-94.132813 0-170.667969-76.535157-170.667969-170.667969 0-94.132813 76.535156-170.667969 170.667969-170.667969 94.132812 0 170.664062 76.535156 170.664062 170.667969 0 94.132812-76.53125 170.667969-170.664062 170.667969zm0-320c-82.402344 0-149.335938 66.933593-149.335938 149.332031 0 82.398437 66.933594 149.332031 149.335938 149.332031 82.398437 0 149.332031-66.933594 149.332031-149.332031 0-82.398438-66.933594-149.332031-149.332031-149.332031zm0 0"/>
  <path d="m159.992188 276.417969 15.085937 15.082031-159.992187 159.996094-15.085938-15.085938zm0 0"/>
  <path d="m184.710938 160.1875h192v21.335938h-192zm0 0"/>
</symbol>

<!-- zoom-in.svg -->
<symbol id="zoom-in" viewBox="0 0 451.37688 451">
  <path d="m280.710938 341.523438c-94.132813 0-170.667969-76.535157-170.667969-170.667969 0-94.132813 76.535156-170.667969 170.667969-170.667969 94.132812 0 170.664062 76.535156 170.664062 170.667969 0 94.132812-76.53125 170.667969-170.664062 170.667969zm0-320c-82.402344 0-149.335938 66.933593-149.335938 149.332031 0 82.398437 66.933594 149.332031 149.335938 149.332031 82.398437 0 149.332031-66.933594 149.332031-149.332031 0-82.398438-66.933594-149.332031-149.332031-149.332031zm0 0"/>
  <path d="m159.992188 276.417969 15.085937 15.082031-159.992187 159.996094-15.085938-15.085938zm0 0"/>
  <path d="m184.710938 160.1875h192v21.335938h-192zm0 0"/>
  <path d="m270.042969 74.855469h21.332031v192h-21.332031zm0 0"/>
</symbol>

</svg>
